<?xml version="1.0" encoding="UTF-8"?>
<svg width="93px" height="145px" viewBox="0 0 93 145" version="1.1" xmlns="http://www.w3.org/2000/svg" xmlns:xlink="http://www.w3.org/1999/xlink">
    <!-- Generator: Sketch 55 (78076) - https://sketchapp.com -->
    <title>_icon_red</title>
    <desc>Created with Sketch.</desc>
    <g id="Page-1" stroke="none" stroke-width="1" fill="none" fill-rule="evenodd">
        <g id="_icon_red" fill-rule="nonzero">
            <path d="M27.4,12.6 C27.4,12.6 27.4,12.5 27.5,12.5 C27.4,12.5 27.4,12.6 27.4,12.6 Z" id="XMLID_310_" fill="#1B1464"></path>
            <path d="M63.2,22.8 C63.2,22.8 63.2,22.8 63.2,22.8 C59.3,18 53.2,14.8 46.5,14.8 C40.1,14.8 34.4,17.6 30.5,22 C30.5,21.9 30.5,21.9 30.5,21.8 C29.6,17.7 29.2,13.4 29.5,9.2 C33.4,4 39.6,0.7 46.5,0.7 C53.9,0.7 60.4,4.5 64.2,10.2 C64.5,14.3 64.1,18.7 63.2,22.8 Z" id="XMLID_308_" fill="#ED1C24"></path>
            <path d="M68.9,59.6 L60.3,75 L47.1,98.5 L21.5,144.2 L15.1,127 L0.9,124.2 L34,75.1 L47.2,55.5 L51.8,48.7 C55.7,42.9 58.9,36.6 61.2,30 C62,27.7 62.7,25.3 63.3,22.9 C63.3,22.9 63.3,22.8 63.3,22.8 C64.2,18.7 64.6,14.4 64.3,10.2 C64.3,10.2 68.8,17.4 72.2,27.7 C75.6,38.2 74.4,49.8 68.9,59.6 Z" id="XMLID_306_" fill="#D3202E"></path>
            <path d="M92.8,123.3 L78.8,126.7 L72.1,143.2 L47,98.4 L34,75.1 L24.8,58.7 C19.3,48.9 18.1,37.3 21.6,26.7 C25,16.5 29.5,9.2 29.5,9.2 C29.1,13.4 29.6,17.7 30.5,21.8 C30.5,21.9 30.5,21.9 30.5,22 C31.1,24.4 31.8,26.8 32.6,29 C34.9,35.6 38.1,41.9 42,47.7 L47.2,55.5 L60.3,75 L92.8,123.3 Z" id="XMLID_304_" fill="#ED1C24"></path>
        </g>
    </g>
</svg>